# xmcd CD database file
#
# Track frame offsets:
#	150
#	20546
#	40167
#	57355
#	82823
#	99028
#	118308
#	142332
#	157283
#	180847
#	208041
#	223307
#	246952
#	274041
#	295107
#
# Disc length: 4193 seconds
#
# Revision: 1
# Processed by: cddbd v1.5.2PL0 Copyright (c) Steve Scherf et al.
# Submitted via: CDex 1.51
#
DISCID=df105f0f
DTITLE=Giuseppe Tartini - 5 Concertos pour violon et orchestre  (Edmondo de Stoutz, Zurich Chamber Orchestra)
DYEAR=1900
DGENRE=Classique
TTITLE0=Concerto en fa majeur D68 - I. Allegro assai [André Gertler, violon]
TTITLE1=Concerto en fa majeur D68 - II. Andante
TTITLE2=Concerto en fa majeur D68 - III. Presto
TTITLE3=Concerto en sol majeur D83 - I. Allegro
TTITLE4=Concerto en sol majeur D83 - II. Andante
TTITLE5=Concerto en sol majeur D83 - III. Allegro
TTITLE6=Concerto en ré majeur D30 - I. Allegro presto
TTITLE7=Concerto en ré majeur D30 - II. Grave
TTITLE8=Concerto en ré majeur D30 - III. Allegro
TTITLE9=Concerto en la majeur D95 - I. Allegro presto
TTITLE10=Concerto en la majeur D95 - II. Grave
TTITLE11=Concerto en la majeur D95 - III. Allegro
TTITLE12=Concerto en ré majeur D24 - I. Allegro assai
TTITLE13=Concerto en ré majeur D24 - II. Adagio
TTITLE14=Concerto en ré majeur D24 - III. Presto
EXTD=
EXTT0=
EXTT1=
EXTT2=
EXTT3=
EXTT4=
EXTT5=
EXTT6=
EXTT7=
EXTT8=
EXTT9=
EXTT10=
EXTT11=
EXTT12=
EXTT13=
EXTT14=
PLAYORDER=
